####
#
# OBJ File Generated by Meshlab
#
####
# Object MA-027-AY-0006_bubble35mm_coarse_250faces.obj
#
# Vertices: 127
# Faces: 250
#
####
vn 0.445949 0.842684 -0.301684
v -0.115365 0.143909 -0.014480
vn 0.693523 -0.024119 0.720031
v -0.085457 0.061737 0.034449
vn 0.462752 0.024278 0.886155
v -0.091768 0.079077 0.039549
vn 0.457368 0.233324 0.858122
v -0.097887 0.095889 0.040269
vn 0.584432 0.399945 0.706034
v -0.102502 0.108569 0.037967
vn 0.686578 0.520069 0.508073
v -0.108216 0.124268 0.032450
vn 0.172617 0.779828 0.601724
v -0.113783 0.139564 0.020587
vn 0.283998 0.937040 0.203225
v -0.116009 0.145679 0.009819
vn -0.442600 0.820268 0.362305
v -0.119828 0.144141 0.010141
vn -0.199076 -0.040478 -0.979148
v -0.103224 0.091474 -0.039407
vn 0.265469 0.279825 -0.922618
v -0.102492 0.108539 -0.038570
vn 0.737643 0.227975 -0.635539
v -0.093298 0.083282 -0.040164
vn 0.773251 0.106516 -0.625090
v -0.089726 0.073467 -0.038366
vn 0.719654 -0.092831 -0.688099
v -0.083171 0.055458 -0.030855
vn 0.852228 -0.158665 -0.498531
v -0.080198 0.047280 -0.025694
vn 0.663331 -0.647248 -0.375583
v -0.076864 0.038131 -0.012914
vn 0.108224 -0.983327 0.146134
v -0.080110 0.034095 0.004248
vn 0.850169 -0.526497 0.003572
v -0.075763 0.035104 0.001826
vn 0.752709 -0.568811 0.331486
v -0.076578 0.037344 0.011152
vn 0.606594 -0.302281 0.735303
v -0.081502 0.050859 0.028698
vn 0.009097 -0.875547 0.483048
v -0.084235 0.037568 0.014709
vn 0.050440 0.672442 -0.738429
v -0.112124 0.135002 -0.025925
vn 0.239414 -0.947574 -0.211622
v -0.078214 0.034865 -0.005535
vn 0.060955 -0.865806 -0.496653
v -0.082030 0.038312 -0.015716
vn -0.177908 -0.393883 -0.901779
v -0.097129 0.063577 -0.034410
vn -0.251367 -0.222863 -0.941885
v -0.102518 0.075602 -0.037210
vn -0.373107 0.030118 -0.927299
v -0.111840 0.101540 -0.036882
vn 0.283810 0.498102 -0.819357
v -0.107623 0.122639 -0.033526
vn -0.328761 0.943269 -0.046474
v -0.118518 0.146773 -0.002604
vn -0.665693 0.738972 0.103792
v -0.125100 0.142559 0.002465
vn -0.482353 0.630516 0.608100
v -0.119574 0.137267 0.020034
vn -0.420196 0.285237 0.861438
v -0.116591 0.119965 0.031541
vn -0.255293 0.175011 0.950893
v -0.109826 0.110625 0.036456
vn -0.350862 -0.030700 0.935924
v -0.109751 0.095041 0.037723
vn -0.280377 -0.170888 0.944556
v -0.105059 0.081985 0.037888
vn -0.422272 0.475367 0.771824
v -0.118199 0.130270 0.025975
vn -0.490118 0.078639 0.868101
v -0.118159 0.106291 0.033569
vn -0.216563 -0.322232 0.921557
v -0.099835 0.069449 0.036056
vn -0.152479 -0.467560 0.870711
v -0.094354 0.058092 0.032324
vn -0.484364 0.285980 -0.826805
v -0.119569 0.118881 -0.030128
vn -0.379363 0.180815 -0.907408
v -0.114548 0.111066 -0.034781
vn -0.376317 -0.117457 -0.919016
v -0.109984 0.087582 -0.037154
vn -0.641135 0.319085 0.697948
v -0.124691 0.122896 0.025117
vn -0.621489 0.164244 0.766013
v -0.124000 0.114199 0.028492
vn -0.582006 -0.107203 0.806087
v -0.118966 0.091687 0.032801
vn -0.238934 -0.594725 0.767602
v -0.097211 0.051007 0.026970
vn -0.171689 -0.739201 -0.651234
v -0.091138 0.043937 -0.022359
vn -0.161904 -0.557909 -0.813956
v -0.094422 0.052023 -0.028468
vn -0.393173 -0.471156 -0.789574
v -0.105533 0.060517 -0.029914
vn -0.405283 -0.322386 -0.855461
v -0.109504 0.073059 -0.033893
vn -0.588394 0.060354 -0.806319
v -0.122371 0.104758 -0.030915
vn -0.135986 -0.722380 0.677994
v -0.091125 0.043941 0.022367
vn -0.392324 -0.479391 0.785026
v -0.105516 0.060524 0.029927
vn -0.470985 -0.345576 0.811634
v -0.111588 0.072301 0.032362
vn -0.520543 -0.221489 0.824608
v -0.115617 0.081829 0.033128
vn -0.696045 0.618827 0.364109
v -0.124469 0.139572 0.011757
vn -0.698609 0.472746 0.537081
v -0.126877 0.133222 0.016271
vn -0.700960 0.000926 0.713200
v -0.126164 0.103377 0.027699
vn -0.764959 -0.167307 0.621969
v -0.126569 0.088919 0.025390
vn -0.420821 -0.658014 0.624441
v -0.103552 0.048699 0.021562
vn -0.594952 -0.375091 -0.710872
v -0.115594 0.070843 -0.028966
vn -0.522620 -0.213001 -0.825529
v -0.115637 0.081822 -0.033113
vn -0.578974 -0.087846 -0.810600
v -0.118985 0.091680 -0.032787
vn -0.608867 0.401158 -0.684363
v -0.123199 0.128765 -0.023342
vn -0.589534 0.613824 -0.525043
v -0.124066 0.137167 -0.015676
vn -0.817986 0.294333 0.494234
v -0.130909 0.124701 0.016700
vn -0.793672 0.140737 0.591843
v -0.130653 0.114847 0.021229
vn -0.852001 -0.046603 0.521461
v -0.132361 0.101122 0.019727
vn -0.702708 -0.291727 0.648919
v -0.123296 0.079034 0.025643
vn -0.662059 -0.405827 0.630065
v -0.119090 0.069570 0.025051
vn -0.579982 -0.532548 0.616453
v -0.112453 0.057999 0.023166
vn -0.318005 -0.813361 0.487152
v -0.096019 0.041011 0.016745
vn 0.656367 -0.484035 0.578699
v -0.078756 0.043326 0.021247
vn -0.925802 0.098108 0.365054
v -0.135180 0.113199 0.013423
vn -0.891359 -0.212044 0.400645
v -0.131984 0.086948 0.016053
vn -0.820410 -0.314860 0.477275
v -0.127711 0.077427 0.018761
vn -0.888322 0.357128 0.288693
v -0.133139 0.127498 0.009397
vn -0.943639 -0.095832 0.316800
v -0.135612 0.099938 0.012758
vn -0.796016 -0.455766 0.398292
v -0.124432 0.067626 0.015839
vn -0.712214 -0.583087 0.390847
v -0.117394 0.056201 0.014647
vn -0.567016 -0.707332 0.422107
v -0.108267 0.046984 0.014518
vn -0.460773 -0.838362 0.291269
v -0.102793 0.041003 0.009826
vn -0.201465 -0.950233 0.237634
v -0.089628 0.035271 0.007690
vn -0.974764 0.109779 0.194382
v -0.137236 0.112451 0.006880
vn -0.959210 -0.238058 0.152461
v -0.134800 0.085923 0.005498
vn -0.898669 -0.354563 0.258223
v -0.130534 0.076400 0.010988
vn -0.777996 -0.612084 0.141688
v -0.119963 0.055266 0.005017
vn -0.962671 0.269511 0.025062
v -0.136053 0.122829 0.001504
vn -0.997603 0.064536 -0.024961
v -0.137835 0.112233 0.000010
vn -0.988980 -0.086843 0.119899
v -0.137283 0.099330 0.005185
vn -0.867459 -0.482508 0.121243
v -0.127211 0.066615 0.005425
vn -0.646233 -0.747839 0.152053
v -0.111397 0.045844 0.004344
vn -0.411681 -0.908778 0.068134
v -0.098354 0.037063 0.002587
vn -0.859278 0.505534 0.077957
v -0.131334 0.134522 0.002350
vn -0.965134 -0.235665 -0.113923
v -0.134803 0.085922 -0.005474
vn -0.930533 -0.366208 0.000313
v -0.131971 0.075876 0.000013
vn -0.796314 -0.602621 -0.052265
v -0.120291 0.055146 -0.002503
vn -0.738283 0.645543 -0.195481
v -0.126995 0.139900 -0.004824
vn -0.886992 0.398233 -0.233786
v -0.132273 0.130164 -0.008759
vn -0.982600 -0.106215 -0.152364
v -0.137286 0.099329 -0.005161
vn -0.868587 -0.478657 -0.128237
v -0.127214 0.066613 -0.005400
vn -0.647831 -0.756212 -0.091967
v -0.110217 0.044966 -0.004212
vn -0.950398 0.195055 -0.242276
v -0.136005 0.118778 -0.008313
vn -0.967245 0.035831 -0.251302
v -0.136835 0.109527 -0.009430
vn -0.900725 -0.212222 -0.379021
v -0.131994 0.086945 -0.016031
vn -0.888318 -0.354983 -0.291337
v -0.130540 0.076397 -0.010964
vn -0.811673 -0.470300 -0.346418
v -0.125470 0.067248 -0.013327
vn -0.748651 -0.607517 -0.265414
v -0.118997 0.055617 -0.009904
vn -0.406599 -0.898050 -0.167878
v -0.098054 0.036998 -0.004208
vn -0.876164 0.088400 -0.473837
v -0.133231 0.110839 -0.018155
vn -0.906727 -0.087108 -0.412623
v -0.134637 0.100293 -0.015115
vn -0.783434 -0.323197 -0.530825
v -0.126350 0.077923 -0.021108
vn -0.562495 -0.753410 -0.340549
v -0.108055 0.045752 -0.012335
vn -0.545309 0.778094 -0.311782
v -0.121857 0.143652 -0.008546
vn -0.760485 0.460314 -0.458010
v -0.128840 0.131414 -0.015113
vn -0.828651 0.268344 -0.491253
v -0.131829 0.121704 -0.016809
vn -0.768489 -0.028329 -0.639236
v -0.129536 0.102150 -0.023923
vn -0.755981 -0.164552 -0.633574
v -0.126584 0.088914 -0.025371
vn -0.739395 -0.420905 -0.525484
v -0.122073 0.068485 -0.020620
vn -0.646702 -0.589056 -0.484551
v -0.115211 0.056995 -0.019069
vn -0.439680 -0.740218 -0.508683
v -0.102543 0.045001 -0.017703
vn -0.275878 -0.870663 -0.407231
v -0.093173 0.037800 -0.012391
vn -0.712748 0.180248 -0.677865
v -0.127690 0.115925 -0.024547
vn -0.672313 -0.272089 -0.688449
v -0.121645 0.079635 -0.027770
vn -0.563328 -0.510159 -0.649923
v -0.110962 0.058542 -0.025087
vn -0.408555 -0.636229 -0.654443
v -0.102095 0.049230 -0.023195
vn -0.109538 -0.983419 -0.144530
v -0.086727 0.034457 -0.005847
# 127 vertices, 0 vertices normals

f 9//9 31//31 7//7
f 6//6 33//33 5//5
f 7//7 36//36 6//6
f 7//7 31//31 36//36
f 9//9 7//7 8//8
f 9//9 8//8 29//29
f 1//1 114//114 29//29
f 11//11 12//12 10//10
f 16//16 24//24 15//15
f 24//24 16//16 23//23
f 18//18 17//17 23//23
f 19//19 17//17 18//18
f 19//19 21//21 17//17
f 21//21 19//19 73//73
f 12//12 11//11 6//6
f 6//6 5//5 12//12
f 12//12 5//5 4//4
f 11//11 28//28 6//6
f 6//6 28//28 22//22
f 6//6 1//1 7//7
f 3//3 13//13 4//4
f 4//4 13//13 12//12
f 6//6 22//22 1//1
f 13//13 3//3 2//2
f 13//13 2//2 14//14
f 14//14 2//2 20//20
f 14//14 20//20 15//15
f 8//8 1//1 29//29
f 1//1 8//8 7//7
f 19//19 18//18 15//15
f 20//20 73//73 15//15
f 15//15 73//73 19//19
f 23//23 16//16 18//18
f 18//18 16//16 15//15
f 39//39 2//2 38//38
f 39//39 20//20 2//2
f 14//14 15//15 48//48
f 25//25 13//13 14//14
f 25//25 14//14 48//48
f 13//13 25//25 26//26
f 13//13 26//26 12//12
f 10//10 12//12 26//26
f 27//27 11//11 10//10
f 41//41 11//11 27//27
f 11//11 41//41 28//28
f 28//28 41//41 40//40
f 28//28 40//40 22//22
f 65//65 22//22 64//64
f 22//22 65//65 1//1
f 1//1 65//65 114//114
f 30//30 9//9 29//29
f 9//9 56//56 31//31
f 6//6 36//36 32//32
f 6//6 32//32 33//33
f 4//4 33//33 34//34
f 4//4 34//34 35//35
f 4//4 35//35 3//3
f 38//38 3//3 35//35
f 38//38 2//2 3//3
f 32//32 37//37 33//33
f 33//33 37//37 34//34
f 39//39 46//46 20//20
f 20//20 46//46 52//52
f 20//20 52//52 73//73
f 64//64 22//22 40//40
f 27//27 10//10 42//42
f 42//42 10//10 26//26
f 48//48 15//15 47//47
f 47//47 15//15 24//24
f 36//36 43//43 32//32
f 32//32 43//43 44//44
f 32//32 44//44 37//37
f 37//37 45//45 34//34
f 34//34 45//45 55//55
f 34//34 55//55 35//35
f 35//35 55//55 54//54
f 35//35 54//54 38//38
f 38//38 54//54 53//53
f 38//38 53//53 39//39
f 39//39 53//53 46//46
f 48//48 49//49 25//25
f 25//25 49//49 50//50
f 25//25 50//50 26//26
f 26//26 50//50 62//62
f 26//26 62//62 42//42
f 42//42 62//62 63//63
f 42//42 63//63 27//27
f 27//27 63//63 51//51
f 27//27 51//51 41//41
f 41//41 51//51 40//40
f 21//21 52//52 72//72
f 52//52 46//46 60//60
f 45//45 37//37 58//58
f 58//58 37//37 44//44
f 43//43 36//36 57//57
f 57//57 36//36 31//31
f 57//57 31//31 56//56
f 57//57 66//66 43//43
f 43//43 66//66 67//67
f 43//43 67//67 44//44
f 44//44 67//67 58//58
f 58//58 59//59 45//45
f 45//45 59//59 69//69
f 45//45 69//69 55//55
f 55//55 69//69 70//70
f 55//55 70//70 54//54
f 54//54 70//70 71//71
f 54//54 71//71 53//53
f 53//53 71//71 60//60
f 53//53 60//60 46//46
f 60//60 72//72 52//52
f 72//72 83//83 21//21
f 21//21 83//83 17//17
f 24//24 23//23 127//127
f 127//127 122//122 24//24
f 24//24 122//122 47//47
f 47//47 126//126 48//48
f 48//48 126//126 49//49
f 49//49 61//61 50//50
f 50//50 61//61 62//62
f 51//51 123//123 40//40
f 40//40 123//123 64//64
f 9//9 30//30 56//56
f 67//67 68//68 58//58
f 58//58 68//68 59//59
f 60//60 81//81 72//72
f 52//52 21//21 73//73
f 56//56 77//77 57//57
f 57//57 77//77 66//66
f 66//66 74//74 67//67
f 67//67 74//74 68//68
f 68//68 75//75 59//59
f 59//59 75//75 76//76
f 59//59 76//76 69//69
f 69//69 76//76 79//79
f 69//69 79//79 70//70
f 70//70 79//79 80//80
f 70//70 80//80 71//71
f 71//71 80//80 81//81
f 71//71 81//81 60//60
f 81//81 82//82 72//72
f 72//72 82//82 83//83
f 56//56 30//30 94//94
f 56//56 94//94 77//77
f 66//66 77//77 74//74
f 74//74 78//78 68//68
f 68//68 78//78 75//75
f 75//75 86//86 76//76
f 76//76 86//86 79//79
f 77//77 88//88 84//84
f 77//77 84//84 74//74
f 74//74 84//84 90//90
f 74//74 90//90 78//78
f 78//78 90//90 85//85
f 78//78 85//85 75//75
f 75//75 85//85 86//86
f 86//86 91//91 79//79
f 79//79 91//91 87//87
f 79//79 87//87 80//80
f 80//80 87//87 92//92
f 80//80 92//92 81//81
f 81//81 92//92 82//82
f 82//82 93//93 83//83
f 94//94 88//88 77//77
f 88//88 89//89 84//84
f 84//84 89//89 90//90
f 85//85 96//96 86//86
f 86//86 96//96 91//91
f 92//92 93//93 82//82
f 83//83 127//127 17//17
f 29//29 98//98 30//30
f 30//30 98//98 94//94
f 89//89 100//100 90//90
f 90//90 100//100 95//95
f 90//90 95//95 85//85
f 85//85 95//95 96//96
f 96//96 101//101 91//91
f 91//91 101//101 97//97
f 91//91 97//97 87//87
f 87//87 97//97 102//102
f 87//87 102//102 92//92
f 92//92 102//102 93//93
f 93//93 102//102 109//109
f 93//93 109//109 127//127
f 93//93 127//127 83//83
f 94//94 98//98 99//99
f 94//94 99//99 88//88
f 88//88 99//99 103//103
f 88//88 103//103 89//89
f 89//89 103//103 104//104
f 89//89 104//104 100//100
f 95//95 106//106 96//96
f 96//96 106//106 101//101
f 101//101 108//108 97//97
f 97//97 108//108 102//102
f 104//104 111//111 100//100
f 100//100 111//111 105//105
f 100//100 105//105 95//95
f 95//95 105//105 106//106
f 106//106 107//107 101//101
f 101//101 107//107 108//108
f 108//108 113//113 102//102
f 102//102 113//113 109//109
f 109//109 122//122 127//127
f 127//127 23//23 17//17
f 99//99 116//116 103//103
f 103//103 116//116 110//110
f 103//103 110//110 104//104
f 104//104 110//110 111//111
f 105//105 112//112 106//106
f 106//106 112//112 119//119
f 106//106 119//119 107//107
f 107//107 119//119 120//120
f 107//107 120//120 108//108
f 108//108 120//120 113//113
f 113//113 122//122 109//109
f 29//29 114//114 98//98
f 98//98 114//114 65//65
f 98//98 65//65 115//115
f 98//98 115//115 99//99
f 99//99 115//115 116//116
f 110//110 117//117 111//111
f 111//111 117//117 118//118
f 111//111 118//118 105//105
f 105//105 118//118 112//112
f 120//120 121//121 113//113
f 113//113 121//121 122//122
f 116//116 123//123 110//110
f 110//110 123//123 117//117
f 118//118 124//124 112//112
f 112//112 124//124 61//61
f 112//112 61//61 119//119
f 119//119 61//61 125//125
f 119//119 125//125 120//120
f 120//120 125//125 126//126
f 120//120 126//126 121//121
f 115//115 65//65 64//64
f 115//115 64//64 116//116
f 116//116 64//64 123//123
f 123//123 51//51 117//117
f 117//117 51//51 63//63
f 117//117 63//63 118//118
f 118//118 63//63 62//62
f 118//118 62//62 124//124
f 124//124 62//62 61//61
f 61//61 49//49 125//125
f 125//125 49//49 126//126
f 126//126 47//47 121//121
f 121//121 47//47 122//122
f 4//4 5//5 33//33
# 250 faces, 0 coords texture

# End of File
